# xmcd
#
# Track frame offsets: 
#        150
#        20877
#        40867
#        61194
#        87069
#        103743
#        122668
#        137823
#        164712
#        191450
#        218665
#        240985
#        254970
#
# Disc length: 3701 seconds
#
# Revision: 0
# Processed by: cddbd v1.5.2PL0 Copyright (c) Steve Scherf et al.
# Submitted via: ExactAudioCopy v1.0b1
#
DISCID=b90e730d
DTITLE=Ewan MacKenzie Band - A Patch Of Blue
DYEAR=2001
DGENRE=Blues
TTITLE0=A Patch Of Blue
TTITLE1=Beauty Inside
TTITLE2=Live and Learn
TTITLE3=Little Bird
TTITLE4=Beck and Call
TTITLE5=Destitution Road
TTITLE6=Stratocumulus
TTITLE7=Love Comes
TTITLE8=Moonhoney
TTITLE9=Amazonia
TTITLE10=The Caged Bird Flies
TTITLE11=Lifeline
TTITLE12=Dame Edna's Gladdies
EXTD=
EXTT0=
EXTT1=
EXTT2=
EXTT3=
EXTT4=
EXTT5=
EXTT6=
EXTT7=
EXTT8=
EXTT9=
EXTT10=
EXTT11=
EXTT12=
PLAYORDER=
